<svg width="1200" height="630" viewBox="0 0 1200 630" fill="none" xmlns="http://www.w3.org/2000/svg" role="img" aria-labelledby="title desc">
  <title id="title">Frustrated reimbursement paperwork cartoon</title>
  <desc id="desc">A cartoon researcher is frustrated while assembling messy travel reimbursement documents from receipts, booking confirmations, and card statements.</desc>
  <defs>
    <linearGradient id="bg" x1="0" y1="0" x2="1200" y2="630" gradientUnits="userSpaceOnUse">
      <stop stop-color="#F7FAFC"/>
      <stop offset="1" stop-color="#EAF4FF"/>
    </linearGradient>
    <linearGradient id="desk" x1="88" y1="402" x2="1112" y2="570" gradientUnits="userSpaceOnUse">
      <stop stop-color="#D8E4EF"/>
      <stop offset="1" stop-color="#BFD1E2"/>
    </linearGradient>
    <filter id="shadow" x="-20%" y="-20%" width="140%" height="160%" color-interpolation-filters="sRGB">
      <feDropShadow dx="0" dy="14" stdDeviation="18" flood-color="#28435F" flood-opacity="0.16"/>
    </filter>
    <filter id="softShadow" x="-20%" y="-20%" width="140%" height="140%" color-interpolation-filters="sRGB">
      <feDropShadow dx="0" dy="6" stdDeviation="8" flood-color="#28435F" flood-opacity="0.14"/>
    </filter>
    <style>
      .ink { stroke: #26384C; stroke-width: 6; stroke-linecap: round; stroke-linejoin: round; }
      .thin { stroke: #46627F; stroke-width: 4; stroke-linecap: round; stroke-linejoin: round; }
      .paper-line { stroke: #8EA4BA; stroke-width: 5; stroke-linecap: round; }
      .red-line { stroke: #E65F5C; stroke-width: 5; stroke-linecap: round; }
      .yellow-line { stroke: #E6B84A; stroke-width: 5; stroke-linecap: round; }
    </style>
  </defs>

  <rect width="1200" height="630" rx="36" fill="url(#bg)"/>
  <circle cx="170" cy="112" r="64" fill="#FFE8A3" opacity="0.75"/>
  <circle cx="1006" cy="114" r="88" fill="#D4EDFF" opacity="0.85"/>
  <path d="M91 354C170 308 267 292 344 324C419 355 495 365 564 335C641 302 736 287 816 323C900 360 985 350 1110 302" stroke="#D8E7F3" stroke-width="22" stroke-linecap="round"/>

  <g filter="url(#shadow)">
    <path d="M98 411H1102C1129 411 1145 439 1132 463L1079 566C1072 580 1058 588 1042 588H158C142 588 128 580 121 566L68 463C55 439 71 411 98 411Z" fill="url(#desk)"/>
    <path d="M100 411H1100" class="ink" opacity="0.35"/>
  </g>

  <g transform="translate(731 169) rotate(9)" filter="url(#softShadow)">
    <rect x="0" y="0" width="180" height="224" rx="16" fill="#FFFFFF" stroke="#26384C" stroke-width="6"/>
    <path d="M30 45H145" class="paper-line"/>
    <path d="M30 77H130" class="paper-line"/>
    <path d="M30 109H150" class="paper-line"/>
    <path d="M30 141H118" class="paper-line"/>
    <path d="M32 178L68 196L122 158" class="red-line"/>
  </g>

  <g transform="translate(139 237) rotate(-10)" filter="url(#softShadow)">
    <rect x="0" y="0" width="176" height="214" rx="16" fill="#FFFFFF" stroke="#26384C" stroke-width="6"/>
    <path d="M28 44H142" class="paper-line"/>
    <path d="M28 76H119" class="paper-line"/>
    <path d="M28 108H150" class="paper-line"/>
    <path d="M28 154H90" class="yellow-line"/>
    <path d="M103 154H144" class="yellow-line"/>
  </g>

  <g transform="translate(880 308) rotate(-8)" filter="url(#softShadow)">
    <rect x="0" y="0" width="214" height="138" rx="14" fill="#FFF6D7" stroke="#26384C" stroke-width="6"/>
    <path d="M27 42H183" class="paper-line"/>
    <path d="M27 73H150" class="paper-line"/>
    <path d="M27 104H103" class="red-line"/>
    <path d="M125 104H183" class="red-line"/>
  </g>

  <g transform="translate(245 415) rotate(6)" filter="url(#softShadow)">
    <rect x="0" y="0" width="178" height="96" rx="13" fill="#FFFFFF" stroke="#26384C" stroke-width="6"/>
    <path d="M28 34H150" class="paper-line"/>
    <path d="M28 62H115" class="paper-line"/>
  </g>

  <g transform="translate(812 428) rotate(13)" filter="url(#softShadow)">
    <rect x="0" y="0" width="160" height="86" rx="12" fill="#FFFFFF" stroke="#26384C" stroke-width="6"/>
    <path d="M23 31H132" class="paper-line"/>
    <path d="M23 58H93" class="paper-line"/>
  </g>

  <g transform="translate(429 267)" filter="url(#shadow)">
    <path d="M-13 169H344L319 298H13L-13 169Z" fill="#4E6680" stroke="#26384C" stroke-width="7" stroke-linejoin="round"/>
    <path d="M33 0H297C313 0 326 13 326 29V174H4V29C4 13 17 0 33 0Z" fill="#31475F" stroke="#26384C" stroke-width="7"/>
    <rect x="31" y="29" width="268" height="116" rx="12" fill="#F6FBFF"/>
    <rect x="55" y="51" width="78" height="18" rx="5" fill="#B8D6EF"/>
    <rect x="55" y="82" width="190" height="12" rx="6" fill="#D9E8F5"/>
    <rect x="55" y="109" width="70" height="12" rx="6" fill="#F3C969"/>
    <rect x="143" y="109" width="132" height="12" rx="6" fill="#E77974"/>
    <path d="M26 218H304" stroke="#26384C" stroke-width="8" stroke-linecap="round"/>
  </g>

  <g transform="translate(505 128)">
    <path d="M125 119C167 127 198 166 201 215L207 318H47L51 215C54 165 84 127 125 119Z" fill="#537AA0" stroke="#26384C" stroke-width="7"/>
    <path d="M78 217C45 239 28 277 26 324" class="ink"/>
    <path d="M173 217C207 238 225 277 228 324" class="ink"/>
    <path d="M72 312C91 292 105 270 114 247" class="thin"/>
    <path d="M179 312C160 291 148 269 140 247" class="thin"/>
    <path d="M76 61C75 28 99 2 129 2C159 2 181 30 177 64L172 103C169 129 149 147 123 147C96 147 77 128 76 101V61Z" fill="#FFD7B5" stroke="#26384C" stroke-width="7"/>
    <path d="M75 67C99 60 127 50 158 27C174 36 185 52 190 72C185 30 161 3 128 0C93 -3 65 26 69 64L75 67Z" fill="#26384C"/>
    <path d="M97 76L124 68" class="thin"/>
    <path d="M146 69L173 78" class="thin"/>
    <path d="M101 92C109 88 117 89 123 95" class="thin"/>
    <path d="M148 95C155 89 164 89 171 94" class="thin"/>
    <path d="M119 126C134 116 151 116 166 126" class="thin"/>
    <path d="M185 72C198 86 193 104 178 110C172 94 175 80 185 72Z" fill="#7EC8F5" stroke="#26384C" stroke-width="5"/>
    <path d="M184 91C204 90 218 101 218 118C218 139 198 152 179 142" fill="#FFD7B5" stroke="#26384C" stroke-width="7"/>
    <path d="M209 73C231 54 260 55 279 77" class="ink"/>
    <path d="M222 55C220 37 228 23 244 15" class="thin"/>
    <path d="M257 56C271 41 288 37 306 45" class="thin"/>
  </g>

  <g transform="translate(384 132) rotate(-13)" filter="url(#softShadow)">
    <path d="M0 0C27 5 49 21 64 47C45 54 22 54 0 44C12 31 10 14 0 0Z" fill="#FFE8A3" stroke="#26384C" stroke-width="6"/>
    <path d="M24 17C34 24 42 33 48 44" class="thin"/>
  </g>

  <g transform="translate(939 154)">
    <path d="M18 52C55 10 104 9 134 52C103 39 58 39 18 52Z" fill="#E65F5C" opacity="0.18"/>
    <path d="M27 47C59 19 98 19 124 47" class="thin"/>
    <path d="M6 20L30 34" class="red-line"/>
    <path d="M71 0L72 28" class="red-line"/>
    <path d="M138 21L113 35" class="red-line"/>
  </g>

  <g transform="translate(141 462)">
    <path d="M0 0H103L91 72H13L0 0Z" fill="#FFFFFF" stroke="#26384C" stroke-width="6" stroke-linejoin="round"/>
    <path d="M17 0L25 72" class="thin"/>
    <path d="M82 0L74 72" class="thin"/>
    <path d="M-15 -18H118" stroke="#26384C" stroke-width="7" stroke-linecap="round"/>
    <path d="M24 -39C35 -57 58 -56 69 -40" class="thin"/>
  </g>

  <g transform="translate(704 505)">
    <path d="M0 0C61 -18 119 -17 179 2" stroke="#26384C" stroke-width="7" stroke-linecap="round"/>
    <path d="M21 26C68 16 115 16 159 28" stroke="#46627F" stroke-width="5" stroke-linecap="round"/>
  </g>

  <g opacity="0.45">
    <path d="M329 120C352 94 382 91 407 111" class="thin"/>
    <path d="M825 92C848 69 881 68 904 92" class="thin"/>
    <path d="M1017 514C1046 489 1086 493 1108 523" class="thin"/>
  </g>
</svg>
